<svg width="500" height="500" viewBox="0 0 500 500" fill="none" xmlns="http://www.w3.org/2000/svg">
<path d="M300.666 250V275.333C300.666 282.052 297.997 288.496 293.246 293.247C288.495 297.998 282.052 300.667 275.333 300.667H212C208.64 300.667 205.418 302.001 203.043 304.377C200.668 306.752 199.333 309.974 199.333 313.333V351.333C199.333 358.052 202.002 364.496 206.753 369.247C211.504 373.998 217.948 376.667 224.666 376.667H351.333C358.052 376.667 364.495 373.998 369.246 369.247C373.997 364.496 376.666 358.052 376.666 351.333V224.667C376.666 217.948 373.997 211.504 369.246 206.753C364.495 202.002 358.052 199.333 351.333 199.333" stroke="#18181B" stroke-width="30" stroke-linecap="round" stroke-linejoin="round"/>
<path d="M148.666 300.667C141.948 300.667 135.504 297.998 130.753 293.247C126.002 288.496 123.333 282.052 123.333 275.333V148.667C123.333 141.948 126.002 135.504 130.753 130.753C135.504 126.002 141.948 123.333 148.666 123.333H275.333C282.052 123.333 288.495 126.002 293.246 130.753C297.997 135.504 300.666 141.948 300.666 148.667V186.667C300.666 190.026 299.332 193.248 296.956 195.623C294.581 197.999 291.359 199.333 288 199.333H224.666C217.948 199.333 211.504 202.002 206.753 206.753C202.002 211.504 199.333 217.948 199.333 224.667V250" stroke="#18181B" stroke-width="30" stroke-linecap="round" stroke-linejoin="round"/>
</svg>
